# xmcd
#
# Track frame offsets:
#	150
#	13105
#	24526
#	35636
#	47567
#	59962
#	73817
#	87876
#	101635
#	113019
#	126536
#	137901
#	147032
#	160371
#
# Disc length: 2297 seconds
#
# Revision: 1
# Processed by: cddbd v1.5.2PL0 Copyright (c) Steve Scherf et al.
# Submitted via: audiograbber 1.83.01
#
DISCID=d108f70e
DTITLE=Ronny - Seine schönsten Lieder [CD2)
DYEAR=1900
DGENRE=Oldies
TTITLE0=Kleine Annabell
TTITLE1=Dunja Du
TTITLE2=Das haus am alten Ohio
TTITLE3=Kein Gold im Blue River
TTITLE4=Valeri, Valera
TTITLE5=Wenn Du einsam bist
TTITLE6=Tom Dooley
TTITLE7=Darling, good night
TTITLE8=Ganz allein
TTITLE9=Du, du liegst mir am Herzen
TTITLE10=Aloha Oe
TTITLE11=Geisterreiter ziehen durch die Nacht
TTITLE12=Die Sonne geht auf, die Sonne geht unter
TTITLE13=Wenn der Tag zu Ende geht
EXTD=
EXTT0=
EXTT1=
EXTT2=
EXTT3=
EXTT4=
EXTT5=
EXTT6=
EXTT7=
EXTT8=
EXTT9=
EXTT10=
EXTT11=
EXTT12=
EXTT13=
PLAYORDER=
